<svg width="17" height="17" viewBox="0 0 17 17" fill="none" xmlns="http://www.w3.org/2000/svg">
<g clip-path="url(#clip0_443_327)">
<path d="M12.8745 7.31543C13.2197 7.31543 13.4995 7.03561 13.4995 6.69043C13.4995 6.34525 13.2197 6.06543 12.8745 6.06543C12.5293 6.06543 12.2495 6.34525 12.2495 6.69043C12.2495 7.03561 12.5293 7.31543 12.8745 7.31543Z" fill="#828282"/>
<path d="M14.312 1.37793H13.4995V0.75293C13.4995 0.407742 13.2197 0.12793 12.8745 0.12793C12.5293 0.12793 12.2495 0.407742 12.2495 0.75293V1.37793H9.40576V0.75293C9.40576 0.407742 9.12595 0.12793 8.78076 0.12793C8.43557 0.12793 8.15576 0.407742 8.15576 0.75293V1.37793H5.34326V0.75293C5.34326 0.407742 5.06345 0.12793 4.71826 0.12793C4.37307 0.12793 4.09326 0.407742 4.09326 0.75293V1.37793H3.31201C1.93351 1.37793 0.812012 2.49943 0.812012 3.87793V13.6279C0.812012 15.0064 1.93351 16.1279 3.31201 16.1279H8.09326C8.43845 16.1279 8.71826 15.8481 8.71826 15.5029C8.71826 15.1577 8.43845 14.8779 8.09326 14.8779H3.31201C2.62276 14.8779 2.06201 14.3172 2.06201 13.6279V3.87793C2.06201 3.18868 2.62276 2.62793 3.31201 2.62793H4.09326V3.25293C4.09326 3.59812 4.37307 3.87793 4.71826 3.87793C5.06345 3.87793 5.34326 3.59812 5.34326 3.25293V2.62793H8.15576V3.25293C8.15576 3.59812 8.43557 3.87793 8.78076 3.87793C9.12595 3.87793 9.40576 3.59812 9.40576 3.25293V2.62793H12.2495V3.25293C12.2495 3.59812 12.5293 3.87793 12.8745 3.87793C13.2197 3.87793 13.4995 3.59812 13.4995 3.25293V2.62793H14.312C15.0013 2.62793 15.562 3.18868 15.562 3.87793V7.44043C15.562 7.78562 15.8418 8.06543 16.187 8.06543C16.5322 8.06543 16.812 7.78562 16.812 7.44043V3.87793C16.812 2.49943 15.6905 1.37793 14.312 1.37793Z" fill="#828282"/>
<path d="M13.0308 8.56543C10.9458 8.56543 9.24951 10.2617 9.24951 12.3467C9.24951 14.4317 10.9458 16.1279 13.0308 16.1279C15.1158 16.1279 16.812 14.4317 16.812 12.3467C16.812 10.2617 15.1158 8.56543 13.0308 8.56543ZM13.0308 14.8779C11.635 14.8779 10.4995 13.7424 10.4995 12.3467C10.4995 10.9509 11.635 9.81543 13.0308 9.81543C14.4265 9.81543 15.562 10.9509 15.562 12.3467C15.562 13.7424 14.4265 14.8779 13.0308 14.8779Z" fill="#828282"/>
<path d="M13.937 11.7217H13.6558V11.0654C13.6558 10.7202 13.3759 10.4404 13.0308 10.4404C12.6856 10.4404 12.4058 10.7202 12.4058 11.0654V12.3467C12.4058 12.6919 12.6856 12.9717 13.0308 12.9717H13.937C14.2822 12.9717 14.562 12.6919 14.562 12.3467C14.562 12.0015 14.2822 11.7217 13.937 11.7217Z" fill="#828282"/>
<path d="M10.1558 7.31543C10.5009 7.31543 10.7808 7.03561 10.7808 6.69043C10.7808 6.34525 10.5009 6.06543 10.1558 6.06543C9.81058 6.06543 9.53076 6.34525 9.53076 6.69043C9.53076 7.03561 9.81058 7.31543 10.1558 7.31543Z" fill="#828282"/>
<path d="M7.43701 10.0342C7.78219 10.0342 8.06201 9.75436 8.06201 9.40918C8.06201 9.064 7.78219 8.78418 7.43701 8.78418C7.09183 8.78418 6.81201 9.064 6.81201 9.40918C6.81201 9.75436 7.09183 10.0342 7.43701 10.0342Z" fill="#828282"/>
<path d="M4.71826 7.31543C5.06344 7.31543 5.34326 7.03561 5.34326 6.69043C5.34326 6.34525 5.06344 6.06543 4.71826 6.06543C4.37308 6.06543 4.09326 6.34525 4.09326 6.69043C4.09326 7.03561 4.37308 7.31543 4.71826 7.31543Z" fill="#828282"/>
<path d="M4.71826 10.0342C5.06344 10.0342 5.34326 9.75436 5.34326 9.40918C5.34326 9.064 5.06344 8.78418 4.71826 8.78418C4.37308 8.78418 4.09326 9.064 4.09326 9.40918C4.09326 9.75436 4.37308 10.0342 4.71826 10.0342Z" fill="#828282"/>
<path d="M4.71826 12.7529C5.06344 12.7529 5.34326 12.4731 5.34326 12.1279C5.34326 11.7828 5.06344 11.5029 4.71826 11.5029C4.37308 11.5029 4.09326 11.7828 4.09326 12.1279C4.09326 12.4731 4.37308 12.7529 4.71826 12.7529Z" fill="#828282"/>
<path d="M7.43701 12.7529C7.78219 12.7529 8.06201 12.4731 8.06201 12.1279C8.06201 11.7828 7.78219 11.5029 7.43701 11.5029C7.09183 11.5029 6.81201 11.7828 6.81201 12.1279C6.81201 12.4731 7.09183 12.7529 7.43701 12.7529Z" fill="#828282"/>
<path d="M7.43701 7.31543C7.78219 7.31543 8.06201 7.03561 8.06201 6.69043C8.06201 6.34525 7.78219 6.06543 7.43701 6.06543C7.09183 6.06543 6.81201 6.34525 6.81201 6.69043C6.81201 7.03561 7.09183 7.31543 7.43701 7.31543Z" fill="#828282"/>
</g>
<defs>
<clipPath id="clip0_443_327">
<rect width="16" height="16" fill="white" transform="translate(0.812012 0.12793)"/>
</clipPath>
</defs>
</svg>
