<svg width="30" height="30" viewBox="0 0 30 30" fill="none" xmlns="http://www.w3.org/2000/svg">
<path d="M20.3446 17.6493L16.1617 14.5122V8.12187C16.1617 7.47934 15.6423 6.95996 14.9998 6.95996C14.3573 6.95996 13.8379 7.47934 13.8379 8.12187V15.0932C13.8379 15.4592 14.0099 15.8043 14.3027 16.0228L18.9502 19.5085C19.1593 19.6653 19.4034 19.7408 19.6462 19.7408C20.0006 19.7408 20.3491 19.5816 20.5769 19.2749C20.9627 18.7624 20.8581 18.0339 20.3446 17.6493Z" fill="#828282"/>
<path d="M15 0C6.7285 0 0 6.7285 0 15C0 23.2715 6.7285 30 15 30C23.2715 30 30 23.2715 30 15C30 6.7285 23.2715 0 15 0ZM15 27.6762C8.01123 27.6762 2.32377 21.9888 2.32377 15C2.32377 8.01123 8.01123 2.32377 15 2.32377C21.9899 2.32377 27.6762 8.01123 27.6762 15C27.6762 21.9888 21.9888 27.6762 15 27.6762Z" fill="#828282"/>
</svg>
