<svg width="29" height="28" viewBox="0 0 29 28" fill="none" xmlns="http://www.w3.org/2000/svg">
<path d="M11.7965 16.2293C13.5361 17.994 15.6409 19.3565 17.9632 20.221L21.1048 17.721C21.198 17.6568 21.3084 17.6225 21.4215 17.6225C21.5346 17.6225 21.645 17.6568 21.7382 17.721L27.5715 21.4793C27.7929 21.6125 27.9804 21.7953 28.1191 22.0133C28.2577 22.2314 28.3438 22.4787 28.3705 22.7357C28.3972 22.9927 28.3637 23.2524 28.2728 23.4943C28.1818 23.7361 28.0359 23.9535 27.8465 24.1293L25.1132 26.8293C24.7217 27.2161 24.2406 27.4999 23.7128 27.6555C23.1849 27.8111 22.6268 27.8336 22.0882 27.721C16.715 26.6113 11.7624 24.0122 7.79649 20.221C3.91856 16.392 1.23505 11.52 0.071488 6.19599C-0.0434568 5.66569 -0.0194662 5.11469 0.141135 4.59639C0.301736 4.07808 0.593501 3.61005 0.988155 3.23766L3.82149 0.504324C3.99682 0.324147 4.21064 0.185969 4.44694 0.100139C4.68324 0.0143076 4.9359 -0.0169529 5.186 0.00869785C5.43609 0.0343486 5.67714 0.116246 5.8911 0.248257C6.10506 0.380269 6.28638 0.558973 6.42149 0.77099L10.3048 6.52932C10.3718 6.61974 10.408 6.7293 10.408 6.84182C10.408 6.95435 10.3718 7.0639 10.3048 7.15432L7.74649 10.2293C8.63447 12.5051 10.0179 14.5547 11.7965 16.2293Z" fill="#828282"/>
</svg>
