<svg width="45" height="51" viewBox="0 0 45 51" fill="none" xmlns="http://www.w3.org/2000/svg">
<path d="M4.01176 45.3385L0 0.338867H44.0623L40.0457 45.3421L22.0204 50.3389L4.01176 45.3385Z" fill="#E34E26"/>
<path d="M22.0312 4.01709V46.5166L36.6068 42.4762L40.0409 4.01709H22.0312Z" fill="#EF662A"/>
<path d="M8.20801 9.53662L9.69568 26.2267H28.8251L28.1832 33.3854L22.0239 35.0506L15.8763 33.3878L15.4653 28.7913H9.92532L10.7175 37.652L22.0226 40.7919L33.342 37.652L34.8595 20.7082H14.7436L14.2385 15.0563H35.3428H35.3597L35.8541 9.53662H8.20801Z" fill="white"/>
<path d="M22.031 9.53662H8.20801L9.69568 26.2267H22.031V20.7082H14.7436L14.2385 15.0563H22.031V9.53662Z" fill="#EBEBEB"/>
<path d="M22.031 35.0485L22.0239 35.0509L15.8763 33.3881L15.4653 28.7915H9.92529L10.7175 37.6523L22.0226 40.7921L22.031 40.7897V35.0485Z" fill="#EBEBEB"/>
</svg>
