<svg width="130" height="30" viewBox="0 0 130 30" fill="none" xmlns="http://www.w3.org/2000/svg">
<path d="M32.3403 20.9751V9.04423H35.2962C35.9392 9.03103 36.5821 9.07622 37.2169 9.17925C37.6545 9.25745 38.0733 9.41806 38.451 9.65253C38.9328 9.96551 39.3199 10.4043 39.5703 10.9214C39.8398 11.4817 39.975 12.0971 39.9652 12.7187C39.9746 13.3894 39.8217 14.0523 39.5195 14.6511C39.2538 15.199 38.8294 15.6543 38.3014 15.9577C37.9383 16.1484 37.5457 16.2765 37.14 16.3366C36.5185 16.4217 35.8914 16.4586 35.2643 16.447H34.5529V20.9809L32.3403 20.9751ZM34.5529 14.3201H35.1989C35.7086 14.3392 36.2184 14.2859 36.7132 14.1618C37.0112 14.0838 37.2736 13.906 37.4565 13.6581C37.6427 13.4019 37.7401 13.092 37.7338 12.7754C37.7431 12.4315 37.6468 12.093 37.4579 11.8056C37.278 11.5416 37.0089 11.3514 36.7001 11.2698C36.2374 11.1831 35.7668 11.1462 35.2962 11.1595H34.5529V14.3201Z" fill="white"/>
<path d="M40.864 20.9758V12.0255H42.8283V12.8965C43.0395 12.5553 43.3248 12.266 43.6631 12.0501C44.0063 11.8821 44.3862 11.8032 44.7679 11.8208H44.9334V13.8867C43.65 13.9186 43.0088 14.6232 43.0098 16.0005V20.9758H40.864Z" fill="white"/>
<path d="M54.6907 12.0253V20.9756H52.7279V19.8142C52.3595 20.2535 51.9043 20.6118 51.3908 20.8668C50.8749 21.0904 50.3167 21.1994 49.7546 21.1862C48.9411 21.1984 48.1391 20.9929 47.4317 20.5909C46.751 20.1983 46.1938 19.6229 45.8231 18.9301C45.4299 18.1931 45.23 17.3684 45.2424 16.5331C45.2283 15.6889 45.4281 14.8548 45.8231 14.1086C46.1971 13.4068 46.7598 12.8235 47.4477 12.4245C48.1623 12.0161 48.9737 11.8075 49.7967 11.8206C50.3718 11.8059 50.9428 11.9205 51.4677 12.156C51.9662 12.4053 52.3966 12.772 52.7221 13.2245V12.0253H54.6907ZM49.9912 13.7921C49.6444 13.7827 49.2996 13.8483 48.9804 13.9843C48.6612 14.1204 48.3751 14.3237 48.1416 14.5805C47.6577 15.106 47.4157 15.7738 47.4157 16.5839C47.4157 17.366 47.6616 18.0004 48.1533 18.4873C48.6449 18.9741 49.2823 19.2161 50.0653 19.2132C50.8396 19.2132 51.4663 18.9659 51.9454 18.4713C52.4245 17.9767 52.6625 17.3302 52.6596 16.5317C52.6596 15.7225 52.4109 15.0629 51.9134 14.5529C51.6634 14.2996 51.3633 14.1012 51.0324 13.9702C50.7015 13.8392 50.3469 13.7786 49.9912 13.7921Z" fill="white"/>
<path d="M63.2477 12.0255H65.2976V19.2845C65.3131 20.0288 65.2351 20.7721 65.0653 21.497C64.9285 22.0452 64.6722 22.5563 64.3147 22.9938C63.462 24.0304 62.245 24.5482 60.6635 24.5472C59.6627 24.5721 58.6754 24.3123 57.8165 23.7981C57.0202 23.3089 56.4059 22.5727 56.0671 21.7017H58.5075C58.7787 22.0162 59.1151 22.2679 59.4933 22.4392C59.8954 22.5941 60.3242 22.6676 60.7549 22.6556C61.5534 22.6556 62.1603 22.4189 62.5755 21.9456C62.9907 21.4723 63.2172 20.7547 63.2549 19.7926C62.8987 20.2361 62.4536 20.6 61.9483 20.8611C61.4334 21.0958 60.872 21.2105 60.3063 21.1965C59.5086 21.2081 58.7234 20.9975 58.0386 20.5882C57.3671 20.1814 56.8249 19.5924 56.475 18.8896C56.0932 18.1309 55.9009 17.2911 55.9146 16.4418C55.9146 15.1178 56.3327 14.0164 57.169 13.1376C57.5722 12.708 58.0618 12.3686 58.6055 12.1416C59.1492 11.9147 59.7348 11.8053 60.3237 11.8208C61.6062 11.8208 62.5813 12.2679 63.2491 13.1622L63.2477 12.0255ZM60.5401 13.7923C60.2065 13.7795 59.8742 13.8404 59.5668 13.9707C59.2594 14.1009 58.9845 14.2973 58.7616 14.5458C58.3135 15.0481 58.0889 15.7116 58.088 16.5362C58.087 17.3608 58.3145 18.0112 58.7703 18.4874C59.2242 18.9714 59.8355 19.2133 60.6039 19.2133C61.3807 19.2133 62.002 18.968 62.4637 18.4758C62.9254 17.9837 63.1577 17.326 63.1577 16.4999C63.1577 15.6738 62.9181 15.0365 62.4318 14.5371C61.9454 14.0377 61.3182 13.7923 60.5401 13.7923Z" fill="white"/>
<path d="M66.9572 20.9755V12.0252H68.9214V12.8701C69.1905 12.5277 69.5341 12.2512 69.9261 12.0615C70.3444 11.8884 70.7947 11.8063 71.2472 11.8205C71.785 11.8013 72.3194 11.9124 72.805 12.1442C73.2539 12.3956 73.6258 12.7645 73.8808 13.2113C74.1995 12.7651 74.6214 12.4025 75.1105 12.1544C75.6229 11.9221 76.1813 11.809 76.7437 11.8234C77.3867 11.8105 78.0241 11.9441 78.6079 12.2139C79.121 12.451 79.551 12.8369 79.8419 13.3216C80.1942 13.942 80.3703 14.7725 80.3703 15.8129V20.9784H78.226V16.0626C78.2347 15.6945 78.2001 15.3266 78.1229 14.9665C78.0691 14.7219 77.9553 14.4944 77.7919 14.3045C77.5016 13.9638 77.0864 13.793 76.5463 13.792C75.8262 13.792 75.3161 14.0916 75.0161 14.6907C74.8322 15.0643 74.7403 15.69 74.7403 16.5679V20.9755H72.5901V16.0626C72.5901 15.2322 72.4561 14.6515 72.188 14.3205C71.8812 13.9682 71.4389 13.792 70.861 13.792C70.0993 13.792 69.5839 14.1153 69.3149 14.7618C69.1755 15.1141 69.1058 15.7161 69.1058 16.5679V20.9755H66.9572Z" fill="white"/>
<path d="M90.9566 12.0253V20.9756H88.9952V19.8142C88.6268 20.2534 88.1716 20.6118 87.6581 20.8667C87.1423 21.0905 86.584 21.1995 86.0219 21.1861C85.2084 21.1989 84.4062 20.9934 83.6991 20.5909C83.0179 20.1989 82.4605 19.6234 82.0905 18.93C81.6964 18.1934 81.4965 17.3684 81.5097 16.5331C81.4956 15.6889 81.6954 14.8548 82.0905 14.1086C82.4645 13.4068 83.0271 12.8235 83.715 12.4245C84.4299 12.015 85.2417 11.8054 86.0655 11.8177C86.6406 11.803 87.2116 11.9176 87.7365 12.153C88.2369 12.4026 88.6689 12.7704 88.9952 13.2245V12.0253H90.9566ZM86.2571 13.7921C85.9103 13.7827 85.5654 13.8483 85.2462 13.9843C84.927 14.1204 84.641 14.3237 84.4075 14.5804C83.9236 15.106 83.6816 15.7738 83.6816 16.5839C83.6816 17.366 83.9275 18.0004 84.4191 18.4872C84.9108 18.9741 85.5482 19.216 86.3312 19.2131C87.1055 19.2131 87.7346 18.9658 88.2185 18.4713C88.7024 17.9767 88.9405 17.3301 88.9328 16.5317C88.9328 15.7225 88.6845 15.0629 88.188 14.5529C87.9368 14.2987 87.6353 14.0997 87.3028 13.9688C86.9703 13.8378 86.6142 13.7776 86.2571 13.7921Z" fill="white"/>
<path d="M93.0849 20.9758V13.981H92.0439V12.0255H93.0921V9.04492H95.2379V12.0255H96.53V13.981H95.2379V20.9758H93.0849Z" fill="white"/>
<path d="M106.047 17.4596H99.1156C99.2325 17.9798 99.5389 18.4378 99.9751 18.7444C100.45 19.0698 101.016 19.2356 101.591 19.2177C101.969 19.23 102.346 19.1612 102.696 19.0159C103.029 18.8514 103.322 18.6161 103.555 18.3263H105.897C105.742 18.7829 105.501 19.2057 105.187 19.572C104.757 20.0937 104.215 20.5111 103.6 20.7925C102.985 21.0739 102.315 21.2121 101.639 21.1965C100.985 21.1998 100.337 21.0765 99.7297 20.8336C99.1581 20.6082 98.6351 20.2751 98.1894 19.8522C97.7564 19.4297 97.4111 18.926 97.1731 18.3699C96.9207 17.7942 96.7916 17.1721 96.7942 16.5435C96.7837 15.7075 96.9984 14.8842 97.4156 14.1597C97.8235 13.4468 98.4144 12.8559 99.1272 12.448C99.8491 12.0302 100.67 11.8136 101.504 11.8208C102.337 11.8086 103.157 12.0228 103.878 12.4407C104.578 12.8482 105.15 13.4437 105.53 14.1597C105.933 14.9192 106.137 15.7681 106.125 16.6277C106.127 16.9069 106.1 17.1856 106.047 17.4596ZM99.0517 15.5723H104.013C103.904 15.0438 103.603 14.5746 103.168 14.2555C102.743 13.9467 102.199 13.7924 101.536 13.7924C100.969 13.7706 100.41 13.9292 99.9388 14.2453C99.5005 14.5711 99.1874 15.0375 99.0517 15.5665V15.5723Z" fill="white"/>
<path d="M113.616 18.0343H116.037C115.716 18.9677 115.118 19.7807 114.322 20.3644C113.526 20.9249 112.571 21.2164 111.597 21.1963C110.957 21.1989 110.323 21.0725 109.733 20.8246C109.166 20.5936 108.648 20.2566 108.207 19.8316C107.774 19.4055 107.429 18.899 107.191 18.3406C106.939 17.7638 106.81 17.1407 106.813 16.5113C106.803 15.6779 107.017 14.857 107.433 14.1347C107.839 13.4265 108.429 12.8412 109.141 12.4405C109.867 12.0258 110.69 11.8119 111.526 11.8206C112.153 11.8183 112.774 11.9345 113.358 12.1632C113.928 12.3847 114.447 12.719 114.884 13.1461C115.142 13.3901 115.37 13.664 115.563 13.962C115.76 14.2946 115.919 14.6475 116.04 15.0145H113.616C113.195 14.1996 112.499 13.7921 111.527 13.7921C111.186 13.7805 110.846 13.8417 110.529 13.9716C110.213 14.1015 109.928 14.2972 109.694 14.5456C109.218 15.0479 108.979 15.6959 108.979 16.4896C108.969 16.8476 109.029 17.2041 109.157 17.5386C109.285 17.8731 109.478 18.1787 109.726 18.4379C109.963 18.6905 110.251 18.8903 110.571 19.0241C110.891 19.1579 111.236 19.2228 111.583 19.2146C111.984 19.2232 112.38 19.1229 112.729 18.9242C113.09 18.7001 113.394 18.3955 113.616 18.0343Z" fill="white"/>
<path d="M117.146 20.9758V9.04492H119.292V12.641C119.915 12.0799 120.731 11.7804 121.569 11.8048C122.177 11.7958 122.778 11.9296 123.325 12.1953C123.823 12.4373 124.241 12.8192 124.527 13.2943C124.728 13.6308 124.871 13.9989 124.949 14.3832C125.04 14.8934 125.081 15.4112 125.071 15.9294V20.9831H122.925V16.4055C122.925 15.459 122.793 14.7873 122.528 14.3905C122.262 13.9936 121.814 13.7942 121.183 13.7923C120.421 13.7923 119.889 14.0919 119.586 14.691C119.393 15.0442 119.296 15.6279 119.296 16.4418V20.9758H117.146Z" fill="white"/>
<path d="M127.548 8.95165V9.24201H127.022V10.4746H126.709V9.24056H126.183V8.9502L127.548 8.95165ZM129.501 8.95165V10.4731H129.187V9.36541L128.676 10.4731H128.471L127.978 9.36977V10.4731H127.664V8.95165H128.133L128.569 9.94468L129.04 8.95165H129.501Z" fill="white"/>
<path d="M7.5 7.5L0 15L7.5 22.5L15 30L22.5 22.5L23.9997 21.0003L17.9994 15L23.9997 8.99971L22.5 7.5L15 0L7.5 7.5Z" fill="white"/>
</svg>
