<svg width="130" height="30" viewBox="0 0 130 30" fill="none" xmlns="http://www.w3.org/2000/svg">
<path d="M32.3403 20.9756V9.04472H35.2962C35.9392 9.03152 36.5821 9.07671 37.2169 9.17974C37.6545 9.25794 38.0733 9.41855 38.451 9.65302C38.9328 9.966 39.3199 10.4048 39.5703 10.9219C39.8398 11.4822 39.975 12.0976 39.9652 12.7192C39.9746 13.3899 39.8217 14.0528 39.5195 14.6516C39.2538 15.1995 38.8294 15.6547 38.3014 15.9582C37.9383 16.1489 37.5457 16.277 37.14 16.3371C36.5185 16.4222 35.8914 16.4591 35.2643 16.4474H34.5529V20.9814L32.3403 20.9756ZM34.5529 14.3206H35.1989C35.7086 14.3397 36.2184 14.2864 36.7132 14.1623C37.0112 14.0843 37.2736 13.9065 37.4565 13.6585C37.6427 13.4024 37.7401 13.0924 37.7338 12.7758C37.7431 12.432 37.6468 12.0935 37.4579 11.806C37.278 11.5421 37.0089 11.3519 36.7001 11.2703C36.2374 11.1836 35.7668 11.1466 35.2962 11.16H34.5529V14.3206Z" fill="white"/>
<path d="M40.864 20.9758V12.0255H42.8283V12.8965C43.0395 12.5553 43.3248 12.266 43.6631 12.0501C44.0063 11.8821 44.3862 11.8032 44.7679 11.8208H44.9334V13.8867C43.65 13.9186 43.0088 14.6232 43.0098 16.0005V20.9758H40.864Z" fill="white"/>
<path d="M54.6907 12.0253V20.9756H52.7279V19.8142C52.3595 20.2535 51.9043 20.6118 51.3908 20.8668C50.8749 21.0904 50.3167 21.1994 49.7546 21.1862C48.9411 21.1984 48.1391 20.9929 47.4317 20.5909C46.751 20.1983 46.1938 19.6229 45.8231 18.9301C45.4299 18.1931 45.23 17.3684 45.2424 16.5331C45.2283 15.6889 45.4281 14.8548 45.8231 14.1086C46.1971 13.4068 46.7598 12.8235 47.4477 12.4245C48.1623 12.0161 48.9737 11.8075 49.7967 11.8206C50.3718 11.8059 50.9428 11.9205 51.4677 12.156C51.9662 12.4053 52.3966 12.772 52.7221 13.2245V12.0253H54.6907ZM49.9912 13.7921C49.6444 13.7827 49.2996 13.8483 48.9804 13.9843C48.6612 14.1204 48.3751 14.3237 48.1416 14.5805C47.6577 15.106 47.4157 15.7738 47.4157 16.5839C47.4157 17.366 47.6616 18.0004 48.1533 18.4873C48.6449 18.9741 49.2823 19.2161 50.0653 19.2132C50.8396 19.2132 51.4663 18.9659 51.9454 18.4713C52.4245 17.9767 52.6625 17.3302 52.6596 16.5317C52.6596 15.7225 52.4109 15.0629 51.9134 14.5529C51.6634 14.2996 51.3633 14.1012 51.0324 13.9702C50.7015 13.8392 50.3469 13.7786 49.9912 13.7921Z" fill="white"/>
<path d="M63.2478 12.0255H65.2977V19.2845C65.3132 20.0288 65.2352 20.7721 65.0654 21.497C64.9286 22.0452 64.6723 22.5563 64.3149 22.9938C63.4622 24.0304 62.2451 24.5482 60.6636 24.5472C59.6628 24.5721 58.6755 24.3123 57.8166 23.7981C57.0204 23.3089 56.406 22.5727 56.0672 21.7017H58.5077C58.7788 22.0162 59.1152 22.2679 59.4934 22.4392C59.8955 22.5941 60.3243 22.6676 60.7551 22.6556C61.5535 22.6556 62.1604 22.4189 62.5756 21.9456C62.9908 21.4723 63.2173 20.7547 63.2551 19.7926C62.8989 20.2361 62.4538 20.6 61.9484 20.8611C61.4336 21.0958 60.8721 21.2105 60.3064 21.1965C59.5087 21.2081 58.7235 20.9975 58.0387 20.5882C57.3672 20.1814 56.825 19.5924 56.4751 18.8896C56.0933 18.1309 55.901 17.2911 55.9147 16.4418C55.9147 15.1178 56.3329 14.0164 57.1691 13.1376C57.5723 12.708 58.0619 12.3686 58.6056 12.1416C59.1493 11.9147 59.7349 11.8053 60.3239 11.8208C61.6063 11.8208 62.5814 12.2679 63.2492 13.1622L63.2478 12.0255ZM60.5402 13.7923C60.2066 13.7795 59.8743 13.8404 59.5669 13.9707C59.2595 14.1009 58.9846 14.2973 58.7617 14.5458C58.3136 15.0481 58.0891 15.7116 58.0881 16.5362C58.0871 17.3608 58.3146 18.0112 58.7704 18.4874C59.2244 18.9714 59.8356 19.2133 60.6041 19.2133C61.3808 19.2133 62.0021 18.968 62.4638 18.4758C62.9255 17.9837 63.1578 17.326 63.1578 16.4999C63.1578 15.6738 62.9182 15.0365 62.4319 14.5371C61.9455 14.0377 61.3183 13.7923 60.5402 13.7923Z" fill="white"/>
<path d="M66.957 20.9755V12.0252H68.9213V12.8701C69.1904 12.5277 69.534 12.2512 69.926 12.0615C70.3443 11.8884 70.7946 11.8063 71.2471 11.8205C71.7849 11.8013 72.3193 11.9124 72.8049 12.1442C73.2538 12.3956 73.6257 12.7645 73.8807 13.2113C74.1994 12.7651 74.6213 12.4025 75.1103 12.1544C75.6228 11.9221 76.1812 11.809 76.7436 11.8234C77.3866 11.8105 78.024 11.9441 78.6077 12.2139C79.1209 12.451 79.5509 12.8369 79.8418 13.3216C80.1941 13.942 80.3702 14.7725 80.3702 15.8129V20.9784H78.2259V16.0626C78.2346 15.6945 78.2 15.3266 78.1228 14.9665C78.0689 14.7219 77.9552 14.4944 77.7918 14.3045C77.5015 13.9638 77.0862 13.793 76.5462 13.792C75.8261 13.792 75.316 14.0916 75.016 14.6907C74.8321 15.0643 74.7401 15.69 74.7401 16.5679V20.9755H72.59V16.0626C72.59 15.2322 72.456 14.6515 72.1879 14.3205C71.8811 13.9682 71.4387 13.792 70.8609 13.792C70.0992 13.792 69.5838 14.1153 69.3148 14.7618C69.1754 15.1141 69.1057 15.7161 69.1057 16.5679V20.9755H66.957Z" fill="white"/>
<path d="M90.9566 12.0253V20.9756H88.9952V19.8142C88.6268 20.2534 88.1716 20.6118 87.6581 20.8667C87.1423 21.0905 86.584 21.1995 86.0219 21.1861C85.2084 21.1989 84.4062 20.9934 83.6991 20.5909C83.0179 20.1989 82.4605 19.6234 82.0905 18.93C81.6964 18.1934 81.4965 17.3684 81.5097 16.5331C81.4956 15.6889 81.6954 14.8548 82.0905 14.1086C82.4645 13.4068 83.0271 12.8235 83.715 12.4245C84.4299 12.015 85.2417 11.8054 86.0655 11.8177C86.6406 11.803 87.2116 11.9176 87.7365 12.153C88.2369 12.4026 88.6689 12.7704 88.9952 13.2245V12.0253H90.9566ZM86.2571 13.7921C85.9103 13.7827 85.5654 13.8483 85.2462 13.9843C84.927 14.1204 84.641 14.3237 84.4075 14.5804C83.9236 15.106 83.6816 15.7738 83.6816 16.5839C83.6816 17.366 83.9275 18.0004 84.4191 18.4872C84.9108 18.9741 85.5482 19.216 86.3312 19.2131C87.1055 19.2131 87.7346 18.9658 88.2185 18.4713C88.7024 17.9767 88.9405 17.3301 88.9328 16.5317C88.9328 15.7225 88.6845 15.0629 88.188 14.5529C87.9368 14.2987 87.6353 14.0997 87.3028 13.9688C86.9703 13.8378 86.6142 13.7776 86.2571 13.7921Z" fill="white"/>
<path d="M93.0849 20.9758V13.981H92.0439V12.0255H93.0921V9.04492H95.2379V12.0255H96.53V13.981H95.2379V20.9758H93.0849Z" fill="white"/>
<path d="M106.047 17.4591H99.1157C99.2327 17.9793 99.539 18.4373 99.9752 18.744C100.45 19.0693 101.016 19.2351 101.591 19.2172C101.97 19.2295 102.346 19.1607 102.696 19.0154C103.029 18.8509 103.323 18.6156 103.555 18.3258H105.897C105.742 18.7824 105.501 19.2052 105.187 19.5715C104.757 20.0932 104.215 20.5106 103.6 20.792C102.985 21.0734 102.315 21.2116 101.639 21.196C100.985 21.1993 100.337 21.0761 99.7299 20.8331C99.1582 20.6078 98.6353 20.2746 98.1895 19.8517C97.7565 19.4292 97.4112 18.9255 97.1732 18.3694C96.9208 17.7937 96.7917 17.1716 96.7943 16.543C96.7839 15.7071 96.9985 14.8837 97.4157 14.1592C97.8236 13.4464 98.4145 12.8554 99.1274 12.4475C99.8492 12.0297 100.67 11.8131 101.504 11.8203C102.337 11.8081 103.157 12.0224 103.878 12.4402C104.578 12.8477 105.15 13.4432 105.53 14.1592C105.933 14.9187 106.137 15.7676 106.125 16.6272C106.127 16.9064 106.101 17.1851 106.047 17.4591ZM99.0519 15.5718H104.013C103.904 15.0433 103.603 14.5741 103.168 14.255C102.743 13.9462 102.199 13.7919 101.536 13.7919C100.969 13.7701 100.41 13.9287 99.9389 14.2448C99.5006 14.5706 99.1875 15.037 99.0519 15.566V15.5718Z" fill="white"/>
<path d="M113.616 18.0343H116.037C115.716 18.9677 115.118 19.7807 114.322 20.3644C113.526 20.9249 112.571 21.2164 111.597 21.1963C110.957 21.1989 110.323 21.0725 109.733 20.8246C109.166 20.5936 108.648 20.2566 108.207 19.8316C107.774 19.4055 107.429 18.899 107.191 18.3406C106.939 17.7638 106.81 17.1407 106.813 16.5113C106.803 15.6779 107.017 14.857 107.433 14.1347C107.839 13.4265 108.429 12.8412 109.141 12.4405C109.867 12.0258 110.69 11.8119 111.526 11.8206C112.153 11.8183 112.774 11.9345 113.358 12.1632C113.928 12.3847 114.447 12.719 114.884 13.1461C115.142 13.3901 115.37 13.664 115.563 13.962C115.76 14.2946 115.919 14.6475 116.04 15.0145H113.616C113.195 14.1996 112.499 13.7921 111.527 13.7921C111.186 13.7805 110.846 13.8417 110.529 13.9716C110.213 14.1015 109.928 14.2972 109.694 14.5456C109.218 15.0479 108.979 15.6959 108.979 16.4896C108.969 16.8476 109.029 17.2041 109.157 17.5386C109.285 17.8731 109.478 18.1787 109.726 18.4379C109.963 18.6905 110.251 18.8903 110.571 19.0241C110.891 19.1579 111.236 19.2228 111.583 19.2146C111.984 19.2232 112.38 19.1229 112.729 18.9242C113.09 18.7001 113.394 18.3955 113.616 18.0343Z" fill="white"/>
<path d="M117.146 20.9758V9.04492H119.292V12.641C119.915 12.0799 120.731 11.7804 121.569 11.8048C122.177 11.7958 122.778 11.9296 123.325 12.1953C123.823 12.4373 124.241 12.8192 124.527 13.2943C124.728 13.6308 124.871 13.9989 124.949 14.3832C125.04 14.8934 125.081 15.4112 125.071 15.9294V20.9831H122.925V16.4055C122.925 15.459 122.793 14.7873 122.528 14.3905C122.262 13.9936 121.814 13.7942 121.183 13.7923C120.421 13.7923 119.889 14.0919 119.586 14.691C119.393 15.0442 119.296 15.6279 119.296 16.4418V20.9758H117.146Z" fill="white"/>
<path d="M127.548 8.95165V9.24201H127.022V10.4746H126.709V9.24056H126.183V8.9502L127.548 8.95165ZM129.501 8.95165V10.4731H129.187V9.36541L128.676 10.4731H128.471L127.978 9.36977V10.4731H127.664V8.95165H128.133L128.569 9.94468L129.04 8.95165H129.501Z" fill="white"/>
<path d="M7.5 7.5L0 15L7.5 22.5L15 30L22.5 22.5L23.9997 21.0003L17.9994 15L23.9997 8.99971L22.5 7.5L15 0L7.5 7.5Z" fill="#41E063"/>
</svg>
