<svg width="45" height="51" viewBox="0 0 45 51" fill="none" xmlns="http://www.w3.org/2000/svg">
<path fill-rule="evenodd" clip-rule="evenodd" d="M22.2495 17.9868C18.1798 17.9868 14.8866 21.2801 14.8866 25.3498C14.8866 26.6751 15.2347 27.9201 15.8639 29.0045L28.6218 21.6549C27.3367 19.4594 24.9671 17.9868 22.2495 17.9868Z" fill="#5E98CF"/>
<path fill-rule="evenodd" clip-rule="evenodd" d="M7.47005 25.3498C7.47005 17.1836 14.0833 10.5703 22.2495 10.5703C27.7115 10.5703 32.4907 13.5423 35.0476 17.9601L43.9501 12.8328C43.5887 12.2036 43.0532 11.6815 42.3437 11.2665C36.4131 7.83936 30.4826 4.42563 24.5655 1.0119C22.9724 0.0881849 21.4195 0.128346 19.8398 1.05206C17.4837 2.44433 5.67616 9.20485 2.15534 11.2397C0.70952 12.0831 0 13.3683 0 15.0283C0 21.8959 0 28.7635 0 35.6445C0 36.4612 0.174034 37.1974 0.5221 37.8266L9.43796 32.6994C8.17957 30.5306 7.47005 28.0272 7.47005 25.3498Z" fill="#5E98CF"/>
<path d="M15.8503 28.9912C17.1221 31.2001 19.505 32.6994 22.236 32.6994C24.9938 32.6994 27.3901 31.1867 28.6485 28.951L22.303 25.2695L15.8503 28.9912Z" fill="#044E87"/>
<path d="M22.2493 40.1292C16.7606 40.1292 11.9814 37.1439 9.42441 32.6993L0.508545 37.8266C0.869999 38.4692 1.40549 39.0181 2.14178 39.4331C5.66261 41.4679 17.4701 48.2419 19.8262 49.6207C21.4059 50.5578 22.9588 50.5846 24.5519 49.6609C30.4691 46.2472 36.413 42.8334 42.3301 39.4197C43.0664 38.9913 43.6019 38.4558 43.9633 37.8132L35.0609 32.6592C32.5307 37.1305 27.7381 40.1292 22.2493 40.1292Z" fill="#044E87"/>
<path d="M44.499 15.0416C44.499 14.1982 44.3249 13.4619 43.9501 12.8193L22.3164 25.2828L43.9769 37.8266C44.3249 37.1974 44.499 36.4745 44.499 35.6445C44.499 35.6445 44.499 21.9092 44.499 15.0416ZM37.1226 26.1797H35.4358V27.8665H33.7491V26.1797H32.0489V24.493H33.7357V22.8062H35.4225V24.493H37.1092V26.1797H37.1226ZM43.3075 26.1797H41.6207V27.8665H39.9339V26.1797H38.2471V24.493H39.9339V22.8062H41.6207V24.493H43.3075V26.1797Z" fill="#0062A2"/>
<path d="M41.6075 22.7925H39.9208V24.4793H38.2206V26.1794H39.9208V27.8662H41.6075V26.1794H43.3077V24.4793H41.6075V22.7925Z" fill="white"/>
<path d="M35.436 22.7925H33.7359V24.4793H32.0491V26.1794H33.7359V27.8662H35.436V26.1794H37.1228V24.4793H35.436V22.7925Z" fill="white"/>
<path d="M28.662 28.9508C27.4036 31.1865 25.0073 32.6992 22.2495 32.6992C19.5186 32.6992 17.1356 31.1999 15.8639 28.991C15.248 27.92 14.8866 26.675 14.8866 25.3363C14.8866 21.2666 18.1798 17.9733 22.2495 17.9733C24.9671 17.9733 27.3367 19.4459 28.6084 21.6414L35.0477 17.9332C32.4907 13.5154 27.7115 10.5435 22.2495 10.5435C14.0834 10.5435 7.47009 17.1567 7.47009 25.3229C7.47009 28.0003 8.17961 30.5171 9.42462 32.6725C11.9816 37.1036 16.7608 40.1024 22.2495 40.1024C27.7383 40.1024 32.5443 37.1036 35.0878 32.6591L28.662 28.9508Z" fill="white"/>
</svg>
