<svg width="45" height="51" viewBox="0 0 45 51" fill="none" xmlns="http://www.w3.org/2000/svg">
<path d="M44.4851 15.0389C44.4847 14.1982 44.3049 13.4553 43.9413 12.8177C43.5841 12.1907 43.0492 11.6652 42.3317 11.2497C36.4092 7.83477 30.481 4.43028 24.5604 1.01186C22.9643 0.0903709 21.4167 0.123965 19.8324 1.05868C17.475 2.44892 5.67271 9.21074 2.15577 11.2478C0.707391 12.0863 0.00261094 13.3694 0.00226282 15.0373C0 21.905 0.00226282 28.7724 0 35.6403C0 36.4625 0.172496 37.191 0.5201 37.819C0.877451 38.465 1.41983 39.0049 2.15385 39.4298C5.67097 41.4668 17.4749 48.2281 19.8317 49.6187C21.4167 50.554 22.9643 50.5874 24.561 49.6656C30.4817 46.247 36.4103 42.8426 42.3336 39.4277C43.0677 39.003 43.61 38.4627 43.9674 37.8173C44.3145 37.1892 44.4873 36.4608 44.4873 35.6384C44.4873 35.6384 44.4873 21.9067 44.4851 15.0389Z" fill="#A179DC"/>
<path d="M22.3118 25.272L0.520142 37.8191C0.877493 38.4651 1.41987 39.005 2.1539 39.4299C5.67101 41.467 17.4749 48.2282 19.8317 49.6188C21.4167 50.5541 22.9643 50.5875 24.561 49.6657C30.4817 46.2471 36.4103 42.8427 42.3337 39.4278C43.0677 39.0031 43.6101 38.4628 43.9674 37.8174L22.3118 25.272Z" fill="#280068"/>
<path d="M44.4851 15.0391C44.4848 14.1984 44.305 13.4555 43.9413 12.8179L22.3118 25.2721L43.9674 37.8175C44.3145 37.1894 44.487 36.461 44.4874 35.6385C44.4874 35.6385 44.4874 21.9069 44.4851 15.0391Z" fill="#390091"/>
<path d="M35.1419 20.5815V22.9268H37.4872V20.5815H38.6598V22.9268H41.0051V24.0994H38.6598V26.4447H41.0051V27.6173H38.6598V29.9626H37.4872V27.6173H35.1419V29.9626H33.9693V27.6173H31.624V26.4447H33.9693V24.0994H31.624V22.9268H33.9693V20.5815H35.1419ZM37.4872 24.0994H35.1419V26.4447H37.4872V24.0994Z" fill="white"/>
<path d="M22.3596 8.80273C28.4768 8.80273 33.8176 12.1249 36.6783 17.0631L36.6504 17.0155L29.4531 21.1597C28.0351 18.7587 25.4355 17.1385 22.4535 17.1051L22.3596 17.1046C17.8121 17.1046 14.1253 20.7911 14.1253 25.3386C14.1253 26.8257 14.5218 28.2197 15.2113 29.4238C16.6306 31.9016 19.2988 33.5728 22.3596 33.5728C25.4392 33.5728 28.1226 31.8804 29.5347 29.376L29.5004 29.4361L36.6868 33.5994C33.8575 38.4957 28.5899 41.8077 22.5437 41.8737L22.3596 41.8747C16.223 41.8747 10.867 38.532 8.01355 33.5678C6.62053 31.1443 5.82349 28.3347 5.82349 25.3386C5.82349 16.2062 13.2268 8.80273 22.3596 8.80273Z" fill="white"/>
</svg>
