<svg width="45" height="51" viewBox="0 0 45 51" fill="none" xmlns="http://www.w3.org/2000/svg">
<path d="M22.0287 50.3389L4.01934 45.3381L0 0.338867H44.1196L40.1002 45.3303" fill="#4B4B4D"/>
<path d="M36.6629 42.4693L40.0925 4.02148H22.0598V46.5087" fill="#4B4B4D"/>
<path d="M23.0608 9.54199V15.0545L35.4059 14.7831L35.8792 9.54199" fill="#4B4B4D"/>
<path d="M33.3885 20.7065H23.0608V26.2268L30.1063 25.7693L29.47 33.1581L23.0608 34.7707V40.5081L33.3652 37.6549L33.4428 36.7168L34.7463 22.1874L34.8783 20.7065" fill="#4B4B4D"/>
<path d="M27.6233 23.5365H23.0608V12.2944H28.1276" fill="#4B4B4D"/>
<path d="M20.8804 34.7319L13.7341 32.7006L13.509 29.6148L9.94751 28.9868L10.7234 37.6548L20.8804 40.4692" fill="#4B4B4D"/>
<path d="M20.8804 9.54199H16.186L17.1637 37.8177H20.8804" fill="#4B4B4D"/>
<path d="M22.0287 50.3389L4.01934 45.3381L0 0.338867H44.1196L40.1002 45.3303" fill="#F48131"/>
<path d="M36.6629 42.4693L40.0925 4.02148H22.0598V46.5087" fill="#F99C35"/>
<path d="M23.0608 9.54199V15.0545L35.4059 14.7831L35.8792 9.54199" fill="white"/>
<path d="M33.3885 20.7065H23.0608V26.2268L30.1063 25.7693L29.47 33.1581L23.0608 34.7707V40.5081L33.3652 37.6549L33.4428 36.7168L34.7463 22.1874L34.8783 20.7065" fill="white"/>
<path d="M27.6233 23.5365H23.0608V12.2944H28.1276" fill="white"/>
<path d="M20.8804 34.7319L13.7341 32.7006L13.509 29.6148L9.94751 28.9868L10.7234 37.6548L20.8804 40.4692" fill="#EBEBEC"/>
<path d="M20.8804 9.54199H16.186L17.1637 37.8177H20.8804" fill="#EBEBEC"/>
</svg>
