<svg width="51" height="51" viewBox="0 0 51 51" fill="none" xmlns="http://www.w3.org/2000/svg">
<path d="M24.9497 0.338867C12.1901 0.338868 12.9869 5.87218 12.9869 5.87218L13.0011 11.6046H25.1773V13.3258H8.16483C8.16483 13.3258 0 12.3998 0 25.2743C-9.10043e-07 38.1488 7.12645 37.6923 7.12645 37.6923H11.3796V31.718C11.3796 31.718 11.1503 24.5915 18.3922 24.5915H30.4688C30.4688 24.5915 37.2538 24.7012 37.2538 18.0341V7.01013C37.2538 7.01013 38.284 0.338867 24.9497 0.338867ZM18.2357 4.19369C19.4472 4.19369 20.4263 5.17282 20.4263 6.38426C20.4263 7.59569 19.4472 8.57482 18.2357 8.57482C17.0243 8.57482 16.0452 7.59569 16.0452 6.38426C16.0452 5.17282 17.0243 4.19369 18.2357 4.19369Z" fill="url(#paint0_linear_438_389)"/>
<path d="M25.3121 50.3388C38.0717 50.3388 37.2749 44.8055 37.2749 44.8055L37.2606 39.073H25.0845V37.3519H42.0969C42.0969 37.3519 50.2618 38.2778 50.2618 25.4033C50.2618 12.5288 43.1353 12.9854 43.1353 12.9854H38.8822V18.9597C38.8822 18.9597 39.1115 26.0861 31.8696 26.0861H19.793C19.793 26.0861 13.008 25.9764 13.008 32.6436V43.6675C13.008 43.6675 11.9778 50.3388 25.3121 50.3388ZM32.026 46.484C30.8146 46.484 29.8355 45.5048 29.8355 44.2934C29.8355 43.082 30.8146 42.1028 32.026 42.1028C33.2375 42.1028 34.2166 43.082 34.2166 44.2934C34.2166 45.5048 33.2375 46.484 32.026 46.484Z" fill="url(#paint1_linear_438_389)"/>
<defs>
<linearGradient id="paint0_linear_438_389" x1="4.83025" y1="4.83623" x2="29.7381" y2="29.4956" gradientUnits="userSpaceOnUse">
<stop stop-color="#387EB8"/>
<stop offset="1" stop-color="#366994"/>
</linearGradient>
<linearGradient id="paint1_linear_438_389" x1="20.1188" y1="20.6708" x2="46.8672" y2="45.9569" gradientUnits="userSpaceOnUse">
<stop stop-color="#FFE052"/>
<stop offset="1" stop-color="#FFC331"/>
</linearGradient>
</defs>
</svg>
